<!DOCTYPE svg PUBLIC "-//W3C//DTD SVG 1.1//EN" "http://www.w3.org/Graphics/SVG/1.1/DTD/svg11.dtd">
<!-- Uploaded to: SVG Repo, www.svgrepo.com, Transformed by: SVG Repo Mixer Tools -->
<svg fill="#ffffff" height="64px" width="64px" version="1.1" id="Layer_1" xmlns="http://www.w3.org/2000/svg" xmlns:xlink="http://www.w3.org/1999/xlink" viewBox="0 0 512 512" xml:space="preserve" stroke="#ffffff">
<g id="SVGRepo_bgCarrier" stroke-width="0"/>
<g id="SVGRepo_tracerCarrier" stroke-linecap="round" stroke-linejoin="round"/>
<g id="SVGRepo_iconCarrier"> <g> <g> <g> <path d="M511.459,197.567c-1.218-3.674-4.331-6.401-8.134-7.124l-157.256-29.888L265.291,17.433 c-1.891-3.354-5.443-5.424-9.289-5.424c-0.022,0-0.043,0-0.064,0c-3.871,0.023-7.426,2.141-9.288,5.534l-77.018,140.32 L8.552,190.468c-3.794,0.768-6.874,3.531-8.049,7.22c-1.174,3.689-0.258,7.723,2.394,10.544l109.656,116.603L93.778,488.105 c-0.443,3.846,1.233,7.629,4.378,9.887c1.845,1.325,4.025,2,6.22,2c1.547,0,3.1-0.336,4.548-1.019l144.789-68.256l149.478,68.31 c3.519,1.608,7.636,1.183,10.755-1.11c3.117-2.292,4.748-6.096,4.261-9.936l-20.172-158.794l111.156-121.049 C511.807,205.287,512.676,201.241,511.459,197.567z M378.972,318.403c-2.124,2.313-3.121,5.444-2.726,8.56l18.38,144.693 l-136.55-62.403c-1.408-0.642-2.921-0.964-4.433-0.964c-1.554,0-3.109,0.339-4.549,1.019l-131.931,62.195l17.151-149.149 c0.358-3.12-0.675-6.239-2.827-8.527L31.57,207.576l147.148-29.785c3.078-0.622,5.723-2.57,7.234-5.322l70.18-127.859 l73.791,130.744c1.544,2.734,4.213,4.65,7.299,5.237l143.292,27.234L378.972,318.403z"/> <path d="M331.588,212.091c-1.1,5.788,2.7,11.372,8.488,12.471l75.992,14.445c0.673,0.128,1.342,0.19,2.003,0.19 c5.021,0,9.495-3.563,10.469-8.678c1.1-5.788-2.7-11.372-8.488-12.471l-75.992-14.445 C338.276,202.503,332.69,206.301,331.588,212.091z"/> <path d="M309.755,218.804l0.375,0.073c0.688,0.133,1.373,0.198,2.048,0.198c5.004,0,9.469-3.537,10.459-8.633 c1.125-5.784-2.651-11.383-8.434-12.509l-0.375-0.073c-5.785-1.125-11.384,2.652-12.508,8.435 C300.196,212.079,303.972,217.678,309.755,218.804z"/> <path d="M318.15,277.014l-34.889-6.629l-17.97-31.842c-1.891-3.353-5.443-5.424-9.289-5.424c-0.022,0-0.043,0-0.064,0 c-3.871,0.022-7.426,2.141-9.288,5.535l-17.089,31.133l-35.834,7.252c-3.794,0.768-6.874,3.532-8.049,7.221 c-1.176,3.688-0.258,7.723,2.393,10.544l24.33,25.872l-4.176,36.322c-0.443,3.846,1.234,7.629,4.379,9.887 c3.146,2.257,7.268,2.632,10.769,0.981l32.122-15.145l33.25,15.198c1.417,0.648,2.929,0.965,4.433,0.965 c2.238,0,4.459-0.703,6.323-2.074c3.118-2.294,4.749-6.098,4.262-9.938l-4.475-35.229l24.729-26.93 c2.619-2.851,3.486-6.898,2.269-10.571C325.066,280.463,321.953,277.737,318.15,277.014z M280.223,310.856 c-2.124,2.312-3.121,5.444-2.726,8.56l2.684,21.128l-20.323-9.289c-1.409-0.643-2.922-0.965-4.436-0.965 c-1.554,0-3.109,0.339-4.549,1.019l-19.265,9.083l2.553-22.199c0.359-3.12-0.675-6.239-2.825-8.526l-14.593-15.518l21.904-4.431 c3.078-0.623,5.724-2.571,7.235-5.323l10.248-18.672l10.983,19.463c1.544,2.735,4.215,4.65,7.301,5.237l20.923,3.976 L280.223,310.856z"/> </g> </g> </g> </g>
</svg>