<svg width="110" height="29" viewBox="0 0 110 29" fill="none" xmlns="http://www.w3.org/2000/svg">
<path fill-rule="evenodd" clip-rule="evenodd" d="M15.3462 9.50512C17.6888 9.50512 19.4616 7.75597 19.4616 5.74841C19.4616 3.74085 17.6888 1.9917 15.3462 1.9917C13.0037 1.9917 11.2309 3.74085 11.2309 5.74841C11.2309 7.75597 13.0037 9.50512 15.3462 9.50512ZM15.3462 10.5051C18.1713 10.5051 20.4616 8.37547 20.4616 5.74841C20.4616 3.12135 18.1713 0.991699 15.3462 0.991699C12.5211 0.991699 10.2309 3.12135 10.2309 5.74841C10.2309 8.37547 12.5211 10.5051 15.3462 10.5051ZM8.50001 6.76773C8.50001 8.21235 7.21797 9.50515 5.48081 9.50515C3.74365 9.50515 2.46161 8.21235 2.46161 6.76773C2.46161 5.32311 3.74365 4.03031 5.48081 4.03031C7.21797 4.03031 8.50001 5.32311 8.50001 6.76773ZM9.50001 6.76773C9.50001 8.83185 7.70055 10.5051 5.48081 10.5051C3.26107 10.5051 1.46161 8.83185 1.46161 6.76773C1.46161 4.70361 3.26107 3.03031 5.48081 3.03031C7.70055 3.03031 9.50001 4.70361 9.50001 6.76773ZM17.1921 12.5018H4C2.34315 12.5018 1 13.8449 1 15.5018V23.9917C1 25.6486 2.34315 26.9917 4 26.9917H17.1921C18.849 26.9917 20.1921 25.6486 20.1921 23.9917V15.5018C20.1921 13.8449 18.849 12.5018 17.1921 12.5018ZM4 11.5018C1.79086 11.5018 0 13.2926 0 15.5018V23.9917C0 26.2008 1.79086 27.9917 4 27.9917H17.1921C19.4013 27.9917 21.1921 26.2008 21.1921 23.9917V22.7682C21.2405 22.8115 21.292 22.8519 21.3465 22.8891L26.6541 26.5126C27.6497 27.1923 28.9998 26.4793 28.9998 25.2737V15.0443C28.9998 13.8388 27.6497 13.1258 26.6541 13.8055L21.3465 17.429C21.292 17.4661 21.2405 17.5065 21.1921 17.5498V15.5018C21.1921 13.2926 19.4013 11.5018 17.1921 11.5018H4ZM27.9998 15.0443C27.9998 14.6425 27.5498 14.4048 27.2179 14.6314L21.9103 18.2549C21.7738 18.348 21.6922 18.5026 21.6922 18.6678V21.6502C21.6922 21.8155 21.7738 21.97 21.9103 22.0632L27.2179 25.6867C27.5498 25.9133 27.9998 25.6756 27.9998 25.2737V15.0443ZM10.6186 24.1254C13.0401 24.1254 15.0032 22.3 15.0032 20.0482C15.0032 19.0681 14.9837 18.3198 14.4976 17.3457C14.3618 17.1917 14.2003 16.7503 14.019 16.2549C13.7336 15.4752 13.3993 14.5617 13.0393 14.4238C12.6321 14.2678 12.1893 14.8286 11.7477 15.388C11.3588 15.8805 10.9709 16.3718 10.6089 16.3718C10.2148 16.3718 9.81141 15.86 9.41571 15.3579C8.987 14.814 8.56732 14.2815 8.17836 14.4238C7.80826 14.5592 7.46834 15.4887 7.17966 16.2781C7.00652 16.7515 6.85182 17.1746 6.72007 17.3457C6.23401 18.3198 6.23401 19.1641 6.23401 20.0482C6.23401 22.3 8.19705 24.1254 10.6186 24.1254Z" fill="white"/>
<path d="M37.3652 25L34.7871 16.5991H34.7212C34.731 16.7993 34.7456 17.1021 34.7651 17.5073C34.7896 17.9077 34.8115 18.335 34.8311 18.7891C34.8506 19.2432 34.8604 19.6533 34.8604 20.0195V25H32.8315V14.292H35.9224L38.4565 22.4805H38.5005L41.1885 14.292H44.2793V25H42.1626V19.9316C42.1626 19.5947 42.1675 19.2065 42.1772 18.7671C42.1919 18.3276 42.209 17.9102 42.2285 17.5146C42.248 17.1143 42.2627 16.814 42.2725 16.6138H42.2065L39.4453 25H37.3652ZM54.2476 20.8911C54.2476 21.5747 54.1548 22.1802 53.9692 22.7075C53.7886 23.2349 53.5225 23.6816 53.1709 24.0479C52.8242 24.4092 52.4043 24.6826 51.9111 24.8682C51.4229 25.0537 50.8711 25.1465 50.2559 25.1465C49.6797 25.1465 49.1499 25.0537 48.6665 24.8682C48.188 24.6826 47.7705 24.4092 47.4141 24.0479C47.0625 23.6816 46.7891 23.2349 46.5938 22.7075C46.4033 22.1802 46.3081 21.5747 46.3081 20.8911C46.3081 19.9829 46.4692 19.2139 46.7915 18.584C47.1138 17.9541 47.5728 17.4756 48.1685 17.1484C48.7642 16.8213 49.4746 16.6577 50.2998 16.6577C51.0664 16.6577 51.7451 16.8213 52.3359 17.1484C52.9316 17.4756 53.3979 17.9541 53.7349 18.584C54.0767 19.2139 54.2476 19.9829 54.2476 20.8911ZM48.5859 20.8911C48.5859 21.4282 48.6445 21.8799 48.7617 22.2461C48.8789 22.6123 49.062 22.8882 49.311 23.0737C49.5601 23.2593 49.8848 23.3521 50.2852 23.3521C50.6807 23.3521 51.0005 23.2593 51.2446 23.0737C51.4937 22.8882 51.6743 22.6123 51.7866 22.2461C51.9038 21.8799 51.9624 21.4282 51.9624 20.8911C51.9624 20.3491 51.9038 19.8999 51.7866 19.5435C51.6743 19.1821 51.4937 18.9111 51.2446 18.7305C50.9956 18.5498 50.6709 18.4595 50.2705 18.4595C49.6797 18.4595 49.25 18.6621 48.9814 19.0674C48.7178 19.4727 48.5859 20.0806 48.5859 20.8911ZM58.0415 25L54.9214 16.8115H57.2578L58.8398 21.4771C58.9277 21.7505 58.9961 22.0386 59.0449 22.3413C59.0986 22.644 59.1353 22.915 59.1548 23.1543H59.2134C59.228 22.8955 59.2622 22.6196 59.3159 22.3267C59.3745 22.0337 59.4502 21.7505 59.543 21.4771L61.1177 16.8115H63.4541L60.334 25H58.0415ZM66.8672 16.8115V25H64.6333V16.8115H66.8672ZM65.7539 13.6035C66.0859 13.6035 66.3716 13.6816 66.6108 13.8379C66.8501 13.9893 66.9697 14.2749 66.9697 14.6948C66.9697 15.1099 66.8501 15.3979 66.6108 15.5591C66.3716 15.7153 66.0859 15.7935 65.7539 15.7935C65.417 15.7935 65.1289 15.7153 64.8896 15.5591C64.6553 15.3979 64.5381 15.1099 64.5381 14.6948C64.5381 14.2749 64.6553 13.9893 64.8896 13.8379C65.1289 13.6816 65.417 13.6035 65.7539 13.6035ZM72.5947 16.6577C73.3516 16.6577 74.0034 16.8042 74.5503 17.0972C75.0972 17.3853 75.5195 17.8052 75.8174 18.3569C76.1152 18.9087 76.2642 19.5825 76.2642 20.3784V21.4624H70.9834C71.0078 22.0923 71.1958 22.5879 71.5474 22.9492C71.9038 23.3057 72.397 23.4839 73.0269 23.4839C73.5493 23.4839 74.0278 23.4302 74.4624 23.3228C74.897 23.2153 75.3438 23.0542 75.8027 22.8394V24.5679C75.3975 24.7681 74.9727 24.9146 74.5283 25.0073C74.0889 25.1001 73.5542 25.1465 72.9243 25.1465C72.104 25.1465 71.3765 24.9951 70.7417 24.6924C70.1118 24.3896 69.6162 23.9282 69.2549 23.3081C68.8984 22.688 68.7202 21.9067 68.7202 20.9644C68.7202 20.0073 68.8813 19.2114 69.2036 18.5767C69.5308 17.937 69.9849 17.4585 70.5659 17.1411C71.147 16.8188 71.8232 16.6577 72.5947 16.6577ZM72.6094 18.2471C72.1748 18.2471 71.8135 18.3862 71.5254 18.6646C71.2422 18.9429 71.0786 19.3799 71.0347 19.9756H74.1694C74.1646 19.6436 74.1035 19.3481 73.9863 19.0894C73.874 18.8306 73.7031 18.6255 73.4736 18.4741C73.249 18.3228 72.9609 18.2471 72.6094 18.2471ZM83.7935 22.5684C83.7935 23.125 83.6616 23.5962 83.3979 23.9819C83.1392 24.3628 82.751 24.6533 82.2334 24.8535C81.7158 25.0488 81.0713 25.1465 80.2998 25.1465C79.7285 25.1465 79.2378 25.1099 78.8276 25.0366C78.4224 24.9634 78.0122 24.8413 77.5972 24.6704V22.8247C78.0415 23.0249 78.5176 23.1909 79.0254 23.3228C79.5381 23.4497 79.9873 23.5132 80.373 23.5132C80.8076 23.5132 81.1177 23.4497 81.3032 23.3228C81.4937 23.1909 81.5889 23.02 81.5889 22.8101C81.5889 22.6733 81.5498 22.5513 81.4717 22.4438C81.3984 22.3315 81.2373 22.207 80.9883 22.0703C80.7393 21.9287 80.3486 21.7456 79.8164 21.521C79.3037 21.3062 78.8813 21.0889 78.5493 20.8691C78.2222 20.6494 77.978 20.3906 77.8169 20.0928C77.6606 19.79 77.5825 19.4067 77.5825 18.9429C77.5825 18.186 77.8755 17.6172 78.4614 17.2363C79.0522 16.8506 79.8408 16.6577 80.8271 16.6577C81.335 16.6577 81.8184 16.709 82.2773 16.8115C82.7412 16.9141 83.2173 17.0776 83.7056 17.3022L83.0317 18.9136C82.6265 18.7378 82.2432 18.5938 81.8818 18.4814C81.5254 18.3691 81.1616 18.313 80.7905 18.313C80.4634 18.313 80.2168 18.3569 80.0508 18.4448C79.8848 18.5327 79.8018 18.667 79.8018 18.8477C79.8018 18.9795 79.8433 19.0967 79.9263 19.1992C80.0142 19.3018 80.1802 19.4165 80.4243 19.5435C80.6733 19.6655 81.0371 19.8242 81.5156 20.0195C81.9795 20.21 82.3823 20.4102 82.7241 20.6201C83.0659 20.8252 83.3296 21.0815 83.5151 21.3892C83.7007 21.6919 83.7935 22.085 83.7935 22.5684ZM90.2607 16.0278C89.8262 16.0278 89.4404 16.1133 89.1035 16.2842C88.7715 16.4502 88.4907 16.6919 88.2612 17.0093C88.0366 17.3267 87.8657 17.71 87.7485 18.1592C87.6313 18.6084 87.5728 19.1138 87.5728 19.6753C87.5728 20.4321 87.6655 21.0791 87.8511 21.6162C88.0415 22.1484 88.3345 22.5562 88.73 22.8394C89.1255 23.1177 89.6357 23.2568 90.2607 23.2568C90.6953 23.2568 91.1299 23.208 91.5645 23.1104C92.0039 23.0127 92.48 22.8735 92.9927 22.6929V24.5972C92.519 24.7925 92.0527 24.9316 91.5938 25.0146C91.1348 25.1025 90.6196 25.1465 90.0483 25.1465C88.9448 25.1465 88.0366 24.9194 87.3237 24.4653C86.6157 24.0063 86.0908 23.3667 85.749 22.5464C85.4072 21.7212 85.2363 20.7593 85.2363 19.6606C85.2363 18.8501 85.3462 18.1079 85.5659 17.4341C85.7856 16.7603 86.1079 16.1768 86.5327 15.6836C86.9575 15.1904 87.4824 14.8096 88.1074 14.541C88.7324 14.2725 89.4502 14.1382 90.2607 14.1382C90.793 14.1382 91.3252 14.2065 91.8574 14.3433C92.3945 14.4751 92.9072 14.6582 93.3955 14.8926L92.6631 16.7383C92.2627 16.5479 91.8599 16.3818 91.4546 16.2402C91.0493 16.0986 90.6514 16.0278 90.2607 16.0278ZM98.4565 16.6431C99.5552 16.6431 100.397 16.8823 100.983 17.3608C101.569 17.8394 101.862 18.5669 101.862 19.5435V25H100.302L99.8701 23.8867H99.8115C99.5771 24.1797 99.3379 24.4189 99.0938 24.6045C98.8496 24.79 98.5688 24.9268 98.2515 25.0146C97.9341 25.1025 97.5483 25.1465 97.0942 25.1465C96.6108 25.1465 96.1763 25.0537 95.7905 24.8682C95.4097 24.6826 95.1094 24.3994 94.8896 24.0186C94.6699 23.6328 94.5601 23.1445 94.5601 22.5537C94.5601 21.6846 94.8652 21.0449 95.4756 20.6348C96.0859 20.2197 97.0015 19.9902 98.2222 19.9463L99.6431 19.9023V19.5435C99.6431 19.1138 99.5308 18.7988 99.3062 18.5986C99.0815 18.3984 98.769 18.2983 98.3687 18.2983C97.9731 18.2983 97.585 18.3545 97.2041 18.4668C96.8232 18.5791 96.4424 18.7207 96.0615 18.8916L95.3218 17.3828C95.7563 17.1533 96.2422 16.9727 96.7793 16.8408C97.3213 16.709 97.8804 16.6431 98.4565 16.6431ZM99.6431 21.2061L98.7788 21.2354C98.0562 21.2549 97.5532 21.3843 97.27 21.6235C96.9917 21.8628 96.8525 22.1777 96.8525 22.5684C96.8525 22.9102 96.9526 23.1543 97.1528 23.3008C97.353 23.4424 97.6143 23.5132 97.9365 23.5132C98.415 23.5132 98.8179 23.3716 99.145 23.0884C99.4771 22.8052 99.6431 22.4023 99.6431 21.8799V21.2061ZM107.619 23.3667C107.863 23.3667 108.1 23.3423 108.33 23.2935C108.564 23.2446 108.796 23.1836 109.025 23.1104V24.7729C108.786 24.8804 108.488 24.9683 108.132 25.0366C107.78 25.1099 107.395 25.1465 106.975 25.1465C106.486 25.1465 106.047 25.0684 105.656 24.9121C105.271 24.751 104.965 24.4751 104.741 24.0845C104.521 23.689 104.411 23.1396 104.411 22.4365V18.4888H103.342V17.5439L104.572 16.7969L105.217 15.0684H106.645V16.8115H108.938V18.4888H106.645V22.4365C106.645 22.749 106.733 22.9834 106.909 23.1396C107.089 23.291 107.326 23.3667 107.619 23.3667Z" fill="white"/>
</svg>
