<svg width="110" height="29" viewBox="0 0 110 29" fill="none" xmlns="http://www.w3.org/2000/svg">
<path fill-rule="evenodd" clip-rule="evenodd" d="M20.4616 4.75671C20.4616 7.38377 18.1714 9.51342 15.3462 9.51342C12.5211 9.51342 10.2309 7.38377 10.2309 4.75671C10.2309 2.12965 12.5211 0 15.3462 0C18.1714 0 20.4616 2.12965 20.4616 4.75671ZM9.50001 5.77605C9.50001 7.84017 7.70055 9.51347 5.48081 9.51347C3.26107 9.51347 1.46161 7.84017 1.46161 5.77605C1.46161 3.71193 3.26107 2.03864 5.48081 2.03864C7.70055 2.03864 9.50001 3.71193 9.50001 5.77605ZM4 10.5101C1.79086 10.5101 0 12.3009 0 14.5101V23C0 25.2091 1.79086 27 4 27H17.1921C19.4013 27 21.1921 25.2091 21.1921 23V21.8693L25.936 25.1079C26.5998 25.5611 27.4998 25.0857 27.4998 24.282V14.0526C27.4998 13.2489 26.5998 12.7736 25.936 13.2267L21.1921 16.4654V14.5101C21.1921 12.3009 19.4013 10.5101 17.1921 10.5101H4ZM15.766 19.9376C15.766 22.7022 13.3559 24.9432 10.383 24.9432C7.41005 24.9432 5 22.7022 5 19.9376C5 18.8523 5 17.8157 5.59675 16.6198C5.75849 16.4097 5.94842 15.8903 6.16098 15.3091C6.5154 14.3399 6.93272 13.1988 7.3871 13.0325C7.86464 12.8578 8.37987 13.5115 8.9062 14.1793C9.39201 14.7957 9.88726 15.4241 10.371 15.4241C10.8155 15.4241 11.2918 14.8209 11.7692 14.2162C12.3114 13.5295 12.855 12.841 13.355 13.0325C13.7969 13.2018 14.2074 14.3233 14.5577 15.2805C14.7803 15.8888 14.9786 16.4307 15.1453 16.6198C15.7421 17.8157 15.766 18.7344 15.766 19.9376Z" fill="#F0A22E"/>
<path d="M37.3652 24.0083L34.7871 15.6074H34.7212C34.731 15.8076 34.7456 16.1104 34.7651 16.5156C34.7896 16.916 34.8115 17.3433 34.8311 17.7974C34.8506 18.2515 34.8604 18.6616 34.8604 19.0278V24.0083H32.8315V13.3003H35.9224L38.4565 21.4888H38.5005L41.1885 13.3003H44.2793V24.0083H42.1626V18.9399C42.1626 18.603 42.1675 18.2148 42.1772 17.7754C42.1919 17.3359 42.209 16.9185 42.2285 16.5229C42.248 16.1226 42.2627 15.8223 42.2725 15.6221H42.2065L39.4453 24.0083H37.3652ZM54.2476 19.8994C54.2476 20.583 54.1548 21.1885 53.9692 21.7158C53.7886 22.2432 53.5225 22.6899 53.1709 23.0562C52.8242 23.4175 52.4043 23.6909 51.9111 23.8765C51.4229 24.062 50.8711 24.1548 50.2559 24.1548C49.6797 24.1548 49.1499 24.062 48.6665 23.8765C48.188 23.6909 47.7705 23.4175 47.4141 23.0562C47.0625 22.6899 46.7891 22.2432 46.5938 21.7158C46.4033 21.1885 46.3081 20.583 46.3081 19.8994C46.3081 18.9912 46.4692 18.2222 46.7915 17.5923C47.1138 16.9624 47.5728 16.4839 48.1685 16.1567C48.7642 15.8296 49.4746 15.666 50.2998 15.666C51.0664 15.666 51.7451 15.8296 52.3359 16.1567C52.9316 16.4839 53.3979 16.9624 53.7349 17.5923C54.0767 18.2222 54.2476 18.9912 54.2476 19.8994ZM48.5859 19.8994C48.5859 20.4365 48.6445 20.8882 48.7617 21.2544C48.8789 21.6206 49.062 21.8965 49.311 22.082C49.5601 22.2676 49.8848 22.3604 50.2852 22.3604C50.6807 22.3604 51.0005 22.2676 51.2446 22.082C51.4937 21.8965 51.6743 21.6206 51.7866 21.2544C51.9038 20.8882 51.9624 20.4365 51.9624 19.8994C51.9624 19.3574 51.9038 18.9082 51.7866 18.5518C51.6743 18.1904 51.4937 17.9194 51.2446 17.7388C50.9956 17.5581 50.6709 17.4678 50.2705 17.4678C49.6797 17.4678 49.25 17.6704 48.9814 18.0757C48.7178 18.481 48.5859 19.0889 48.5859 19.8994ZM58.0415 24.0083L54.9214 15.8198H57.2578L58.8398 20.4854C58.9277 20.7588 58.9961 21.0469 59.0449 21.3496C59.0986 21.6523 59.1353 21.9233 59.1548 22.1626H59.2134C59.228 21.9038 59.2622 21.6279 59.3159 21.335C59.3745 21.042 59.4502 20.7588 59.543 20.4854L61.1177 15.8198H63.4541L60.334 24.0083H58.0415ZM66.8672 15.8198V24.0083H64.6333V15.8198H66.8672ZM65.7539 12.6118C66.0859 12.6118 66.3716 12.6899 66.6108 12.8462C66.8501 12.9976 66.9697 13.2832 66.9697 13.7031C66.9697 14.1182 66.8501 14.4062 66.6108 14.5674C66.3716 14.7236 66.0859 14.8018 65.7539 14.8018C65.417 14.8018 65.1289 14.7236 64.8896 14.5674C64.6553 14.4062 64.5381 14.1182 64.5381 13.7031C64.5381 13.2832 64.6553 12.9976 64.8896 12.8462C65.1289 12.6899 65.417 12.6118 65.7539 12.6118ZM72.5947 15.666C73.3516 15.666 74.0034 15.8125 74.5503 16.1055C75.0972 16.3936 75.5195 16.8135 75.8174 17.3652C76.1152 17.917 76.2642 18.5908 76.2642 19.3867V20.4707H70.9834C71.0078 21.1006 71.1958 21.5962 71.5474 21.9575C71.9038 22.314 72.397 22.4922 73.0269 22.4922C73.5493 22.4922 74.0278 22.4385 74.4624 22.3311C74.897 22.2236 75.3438 22.0625 75.8027 21.8477V23.5762C75.3975 23.7764 74.9727 23.9229 74.5283 24.0156C74.0889 24.1084 73.5542 24.1548 72.9243 24.1548C72.104 24.1548 71.3765 24.0034 70.7417 23.7007C70.1118 23.3979 69.6162 22.9365 69.2549 22.3164C68.8984 21.6963 68.7202 20.915 68.7202 19.9727C68.7202 19.0156 68.8813 18.2197 69.2036 17.585C69.5308 16.9453 69.9849 16.4668 70.5659 16.1494C71.147 15.8271 71.8232 15.666 72.5947 15.666ZM72.6094 17.2554C72.1748 17.2554 71.8135 17.3945 71.5254 17.6729C71.2422 17.9512 71.0786 18.3882 71.0347 18.9839H74.1694C74.1646 18.6519 74.1035 18.3564 73.9863 18.0977C73.874 17.8389 73.7031 17.6338 73.4736 17.4824C73.249 17.3311 72.9609 17.2554 72.6094 17.2554ZM83.7935 21.5767C83.7935 22.1333 83.6616 22.6045 83.3979 22.9902C83.1392 23.3711 82.751 23.6616 82.2334 23.8618C81.7158 24.0571 81.0713 24.1548 80.2998 24.1548C79.7285 24.1548 79.2378 24.1182 78.8276 24.0449C78.4224 23.9717 78.0122 23.8496 77.5972 23.6787V21.833C78.0415 22.0332 78.5176 22.1992 79.0254 22.3311C79.5381 22.458 79.9873 22.5215 80.373 22.5215C80.8076 22.5215 81.1177 22.458 81.3032 22.3311C81.4937 22.1992 81.5889 22.0283 81.5889 21.8184C81.5889 21.6816 81.5498 21.5596 81.4717 21.4521C81.3984 21.3398 81.2373 21.2153 80.9883 21.0786C80.7393 20.937 80.3486 20.7539 79.8164 20.5293C79.3037 20.3145 78.8813 20.0972 78.5493 19.8774C78.2222 19.6577 77.978 19.3989 77.8169 19.1011C77.6606 18.7983 77.5825 18.415 77.5825 17.9512C77.5825 17.1943 77.8755 16.6255 78.4614 16.2446C79.0522 15.8589 79.8408 15.666 80.8271 15.666C81.335 15.666 81.8184 15.7173 82.2773 15.8198C82.7412 15.9224 83.2173 16.0859 83.7056 16.3105L83.0317 17.9219C82.6265 17.7461 82.2432 17.6021 81.8818 17.4897C81.5254 17.3774 81.1616 17.3213 80.7905 17.3213C80.4634 17.3213 80.2168 17.3652 80.0508 17.4531C79.8848 17.541 79.8018 17.6753 79.8018 17.856C79.8018 17.9878 79.8433 18.105 79.9263 18.2075C80.0142 18.3101 80.1802 18.4248 80.4243 18.5518C80.6733 18.6738 81.0371 18.8325 81.5156 19.0278C81.9795 19.2183 82.3823 19.4185 82.7241 19.6284C83.0659 19.8335 83.3296 20.0898 83.5151 20.3975C83.7007 20.7002 83.7935 21.0933 83.7935 21.5767ZM90.2607 15.0361C89.8262 15.0361 89.4404 15.1216 89.1035 15.2925C88.7715 15.4585 88.4907 15.7002 88.2612 16.0176C88.0366 16.335 87.8657 16.7183 87.7485 17.1675C87.6313 17.6167 87.5728 18.1221 87.5728 18.6836C87.5728 19.4404 87.6655 20.0874 87.8511 20.6245C88.0415 21.1567 88.3345 21.5645 88.73 21.8477C89.1255 22.126 89.6357 22.2651 90.2607 22.2651C90.6953 22.2651 91.1299 22.2163 91.5645 22.1187C92.0039 22.021 92.48 21.8818 92.9927 21.7012V23.6055C92.519 23.8008 92.0527 23.9399 91.5938 24.0229C91.1348 24.1108 90.6196 24.1548 90.0483 24.1548C88.9448 24.1548 88.0366 23.9277 87.3237 23.4736C86.6157 23.0146 86.0908 22.375 85.749 21.5547C85.4072 20.7295 85.2363 19.7676 85.2363 18.6689C85.2363 17.8584 85.3462 17.1162 85.5659 16.4424C85.7856 15.7686 86.1079 15.1851 86.5327 14.6919C86.9575 14.1987 87.4824 13.8179 88.1074 13.5493C88.7324 13.2808 89.4502 13.1465 90.2607 13.1465C90.793 13.1465 91.3252 13.2148 91.8574 13.3516C92.3945 13.4834 92.9072 13.6665 93.3955 13.9009L92.6631 15.7466C92.2627 15.5562 91.8599 15.3901 91.4546 15.2485C91.0493 15.1069 90.6514 15.0361 90.2607 15.0361ZM98.4565 15.6514C99.5552 15.6514 100.397 15.8906 100.983 16.3691C101.569 16.8477 101.862 17.5752 101.862 18.5518V24.0083H100.302L99.8701 22.895H99.8115C99.5771 23.188 99.3379 23.4272 99.0938 23.6128C98.8496 23.7983 98.5688 23.9351 98.2515 24.0229C97.9341 24.1108 97.5483 24.1548 97.0942 24.1548C96.6108 24.1548 96.1763 24.062 95.7905 23.8765C95.4097 23.6909 95.1094 23.4077 94.8896 23.0269C94.6699 22.6411 94.5601 22.1528 94.5601 21.562C94.5601 20.6929 94.8652 20.0532 95.4756 19.6431C96.0859 19.228 97.0015 18.9985 98.2222 18.9546L99.6431 18.9106V18.5518C99.6431 18.1221 99.5308 17.8071 99.3062 17.6069C99.0815 17.4067 98.769 17.3066 98.3687 17.3066C97.9731 17.3066 97.585 17.3628 97.2041 17.4751C96.8232 17.5874 96.4424 17.729 96.0615 17.8999L95.3218 16.3911C95.7563 16.1616 96.2422 15.981 96.7793 15.8491C97.3213 15.7173 97.8804 15.6514 98.4565 15.6514ZM99.6431 20.2144L98.7788 20.2437C98.0562 20.2632 97.5532 20.3926 97.27 20.6318C96.9917 20.8711 96.8525 21.186 96.8525 21.5767C96.8525 21.9185 96.9526 22.1626 97.1528 22.3091C97.353 22.4507 97.6143 22.5215 97.9365 22.5215C98.415 22.5215 98.8179 22.3799 99.145 22.0967C99.4771 21.8135 99.6431 21.4106 99.6431 20.8882V20.2144ZM107.619 22.375C107.863 22.375 108.1 22.3506 108.33 22.3018C108.564 22.2529 108.796 22.1919 109.025 22.1187V23.7812C108.786 23.8887 108.488 23.9766 108.132 24.0449C107.78 24.1182 107.395 24.1548 106.975 24.1548C106.486 24.1548 106.047 24.0767 105.656 23.9204C105.271 23.7593 104.965 23.4834 104.741 23.0928C104.521 22.6973 104.411 22.1479 104.411 21.4448V17.4971H103.342V16.5522L104.572 15.8052L105.217 14.0767H106.645V15.8198H108.938V17.4971H106.645V21.4448C106.645 21.7573 106.733 21.9917 106.909 22.1479C107.089 22.2993 107.326 22.375 107.619 22.375Z" fill="white"/>
</svg>
