<svg width="24" height="23" viewBox="0 0 24 23" fill="none" xmlns="http://www.w3.org/2000/svg">
<path d="M11.8805 11.4538C12.9518 11.453 13.9897 11.1073 14.8173 10.4759C15.6449 9.84441 16.2111 8.96615 16.4193 7.99072C16.6276 7.01528 16.465 6.00301 15.9593 5.12634C15.4537 4.24967 14.6362 3.56283 13.6462 3.18282C12.6561 2.80282 11.5548 2.75316 10.5297 3.0423C9.50465 3.33144 8.6193 3.9415 8.02447 4.76855C7.42964 5.5956 7.16214 6.58848 7.26752 7.57806C7.37291 8.56763 7.84467 9.49269 8.60244 10.1956C9.03262 10.5954 9.54366 10.9124 10.1062 11.1283C10.6688 11.3442 11.2717 11.4549 11.8805 11.4538ZM9.34656 4.80372C9.93275 4.25958 10.7041 3.92093 11.5291 3.84548C12.3541 3.77002 13.1818 3.96243 13.8712 4.38991C14.5605 4.8174 15.0688 5.45351 15.3095 6.18985C15.5501 6.9262 15.5083 7.71723 15.191 8.42814C14.8738 9.13905 14.3008 9.72586 13.5696 10.0886C12.8385 10.4513 11.9944 10.5675 11.1813 10.4174C10.3682 10.2672 9.63638 9.86006 9.11047 9.26522C8.58456 8.67038 8.29714 7.92469 8.29718 7.15521C8.2966 6.71841 8.389 6.28582 8.56909 5.88228C8.74918 5.47874 9.0134 5.1122 9.34656 4.80372Z" fill="white"/>
<path d="M11.8805 12.1355C7.95572 12.1355 4.76257 15.0989 4.76257 18.7417C4.76257 18.8058 4.77618 18.8693 4.80262 18.9286C4.82906 18.9878 4.86781 19.0416 4.91666 19.087C4.96551 19.1323 5.02351 19.1683 5.08733 19.1928C5.15116 19.2174 5.21957 19.23 5.28866 19.23H18.4718C18.6113 19.23 18.7451 19.1786 18.8438 19.087C18.9425 18.9954 18.9979 18.8712 18.9979 18.7417C18.9979 15.0989 15.8047 12.1355 11.8805 12.1355ZM5.83747 18.2534C6.10469 15.377 8.71376 13.1121 11.8805 13.1121C15.0472 13.1121 17.6558 15.377 17.923 18.2534H5.83747Z" fill="white"/>
</svg>
