<svg width="20" height="19" viewBox="0 0 20 19" fill="none" xmlns="http://www.w3.org/2000/svg">
<path d="M18.3773 16.2421L14.3567 12.5103H14.3134C15.5527 11.154 16.1789 9.40556 16.0612 7.6306C15.9434 5.85563 15.0908 4.19168 13.6816 2.98681C12.2725 1.78194 10.4159 1.12949 8.50039 1.16594C6.58485 1.20239 4.75869 1.92492 3.40391 3.18239C2.04914 4.43986 1.27069 6.13485 1.23142 7.9128C1.19215 9.69076 1.89509 11.4139 3.19319 12.7219C4.4913 14.0298 6.28402 14.8212 8.19634 14.9305C10.1087 15.0398 11.9924 14.4586 13.4536 13.3083C13.4536 13.3083 13.4536 13.337 13.4536 13.3485L17.4743 17.0803C17.5318 17.1341 17.6002 17.1769 17.6755 17.206C17.7509 17.2352 17.8318 17.2502 17.9134 17.2502C17.9951 17.2502 18.0759 17.2352 18.1513 17.206C18.2267 17.1769 18.2951 17.1341 18.3526 17.0803C18.416 17.0282 18.4672 16.9646 18.5031 16.8933C18.5389 16.8221 18.5586 16.7448 18.5609 16.6662C18.5632 16.5876 18.5481 16.5094 18.5165 16.4365C18.485 16.3635 18.4376 16.2974 18.3773 16.2421ZM8.65982 13.7791C7.43643 13.7791 6.24052 13.4424 5.2233 12.8115C4.20609 12.1807 3.41327 11.284 2.9451 10.2349C2.47693 9.18583 2.35444 8.03145 2.59311 6.91775C2.83178 5.80405 3.4209 4.78105 4.28597 3.97812C5.15103 3.17519 6.2532 2.62839 7.45308 2.40686C8.65296 2.18533 9.89667 2.29903 11.0269 2.73357C12.1572 3.16811 13.1233 3.90399 13.8029 4.84814C14.4826 5.79228 14.8454 6.9023 14.8454 8.03782C14.8454 8.79177 14.6854 9.53835 14.3745 10.2349C14.0637 10.9315 13.6081 11.5644 13.0337 12.0975C12.4593 12.6306 11.7774 13.0535 11.0269 13.3421C10.2765 13.6306 9.47212 13.7791 8.65982 13.7791Z" fill="white"/>
</svg>
