<svg width="15" height="28" viewBox="0 0 15 28" fill="none" xmlns="http://www.w3.org/2000/svg">
<path d="M13.2782 1.0057H9.42609C4.51995 0.956608 3.89332 3.99299 3.89332 7.27915V9.6687H1.72757C1.62968 9.65562 1.5301 9.66529 1.43655 9.69694C1.34301 9.7286 1.25802 9.78139 1.18819 9.85122C1.11835 9.92106 1.06556 10.006 1.0339 10.0996C1.00225 10.1931 0.992581 10.2927 1.00566 10.3906V14.7221C0.992581 14.82 1.00225 14.9196 1.0339 15.0131C1.06556 15.1067 1.11835 15.1917 1.18819 15.2615C1.25802 15.3313 1.34301 15.3841 1.43655 15.4158C1.5301 15.4474 1.62968 15.4571 1.72757 15.444H3.89332V26.2728C3.88129 26.3708 3.89183 26.4704 3.92414 26.5637C3.95645 26.6571 4.00968 26.7418 4.07975 26.8115C4.14982 26.8811 4.23488 26.9339 4.32844 26.9656C4.422 26.9974 4.52158 27.0073 4.61957 26.9947H9.03048C9.45641 27.0438 9.80149 26.6987 9.66577 26.2728L9.66865 15.444H13.2782C13.3761 15.4571 13.4757 15.4474 13.5693 15.4158C13.6628 15.3841 13.7478 15.3313 13.8176 15.2615C13.8875 15.1917 13.9403 15.1067 13.9719 15.0131C14.0036 14.9196 14.0132 14.82 14.0002 14.7221V10.3906C14.0132 10.2927 14.0036 10.1931 13.9719 10.0996C13.9403 10.006 13.8875 9.92106 13.8176 9.85122C13.7478 9.78139 13.6628 9.7286 13.5693 9.69694C13.4757 9.66529 13.3761 9.65562 13.2782 9.6687H9.66432L9.66865 7.50295C9.80871 6.58034 9.80871 6.7305 10.6649 6.78103H13.2479C13.4486 6.73627 13.6623 6.76082 13.8125 6.61499C13.9626 6.46916 14.0492 6.26991 13.9987 6.05911V1.72761C14.012 1.62981 14.0026 1.53024 13.9711 1.43668C13.9397 1.34312 13.887 1.25809 13.8173 1.18822C13.7475 1.11835 13.6626 1.06552 13.5691 1.03386C13.4756 1.00221 13.3761 0.992566 13.2782 1.0057ZM12.5058 5.25634L10.6952 5.18704C8.45295 5.18704 8.26525 6.40419 8.26525 7.65022L8.25947 10.3877C8.25928 10.4891 8.27909 10.5895 8.31775 10.6832C8.35641 10.7769 8.41317 10.8621 8.48479 10.9338C8.5564 11.0056 8.64146 11.0625 8.7351 11.1013C8.82873 11.1402 8.92911 11.1602 9.03048 11.1602H12.5563V13.9497H9.03337C8.82875 13.9497 8.63249 14.0308 8.48767 14.1754C8.34285 14.3199 8.2613 14.5161 8.26092 14.7207L8.25947 25.5509H5.33716V14.7221C5.33716 14.2962 5.04695 13.9511 4.61957 13.9511H2.44949V11.1616H4.61957C4.72088 11.1618 4.82122 11.142 4.91487 11.1033C5.00852 11.0647 5.09363 11.0079 5.16534 10.9364C5.30972 10.7906 5.33571 10.5942 5.33571 10.3892V7.27771C5.33571 4.04063 5.98977 2.49862 9.42465 2.49862H12.5043V5.25634H12.5058Z" fill="white" stroke="black" stroke-width="0.5"/>
</svg>
