<svg width="30" height="25" viewBox="0 0 30 25" fill="none" xmlns="http://www.w3.org/2000/svg">
<path d="M26.1546 6.80728V7.56404C26.1546 15.1846 20.373 23.9176 9.79351 23.9176C6.67033 23.9243 3.61348 23.0167 1 21.3067C1.45388 21.3684 1.91172 21.3962 2.36973 21.39C4.9586 21.3971 7.47467 20.5335 9.51351 18.9381C8.31078 18.9204 7.14423 18.524 6.17967 17.8053C5.2151 17.0867 4.50159 16.0823 4.14054 14.9349C4.4988 15.0108 4.86405 15.0488 5.23027 15.0484C5.74166 15.0485 6.25073 14.9798 6.74378 14.844C5.44109 14.5844 4.26913 13.88 3.42843 12.8516C2.58773 11.8232 2.13056 10.5345 2.13514 9.2062V9.13053C2.93215 9.57574 3.82571 9.81991 4.73838 9.84188C3.52348 9.04241 2.6597 7.80921 2.32354 6.39425C1.98738 4.97929 2.20421 3.48936 2.92973 2.22891C4.37533 4.0069 6.17893 5.46076 8.22328 6.49597C10.2676 7.53118 12.507 8.12457 14.7957 8.23756C14.6824 7.80804 14.6289 7.36494 14.6368 6.9208C14.5941 5.747 14.9143 4.58859 15.5537 3.6033C16.1931 2.61801 17.1206 1.85372 18.21 1.4145C19.2994 0.97528 20.4976 0.882476 21.6416 1.14872C22.7856 1.41497 23.8198 2.02733 24.6032 2.90242C25.8911 2.64252 27.1265 2.16935 28.2584 1.50242C27.8291 2.85805 26.9159 4.00827 25.693 4.73377C26.8354 4.57636 27.9492 4.25522 29 3.78026C28.2384 4.94993 27.275 5.97489 26.1546 6.80728Z" stroke="white" stroke-linecap="round" stroke-linejoin="round"/>
</svg>
