<svg width="32" height="23" viewBox="0 0 32 23" fill="none" xmlns="http://www.w3.org/2000/svg">
<path fill-rule="evenodd" clip-rule="evenodd" d="M29.7172 2.24891C29.196 1.7269 28.5484 1.3495 27.8379 1.1536C27.5457 1.04742 27.0405 0.96717 26.4352 0.899269C25.7873 0.826591 24.9593 0.762008 24.0064 0.707064C22.0996 0.597115 19.6743 0.524706 17.1531 0.505269C12.1334 0.466567 6.65573 0.63676 4.15514 1.15932C4.14578 1.16128 4.13648 1.1635 4.12725 1.16599C3.40741 1.36008 2.7512 1.74015 2.22429 2.26806C1.69738 2.79597 1.31825 3.45318 1.12478 4.17385C1.12312 4.18004 1.12158 4.18626 1.12015 4.19251C0.716159 5.96713 0.505085 8.73143 0.500091 11.4764C0.4951 14.2198 0.695736 17.0088 1.14154 18.8282L1.14142 18.8283L1.14431 18.839C1.33791 19.5595 1.7171 20.2166 2.244 20.7443C2.7709 21.2721 3.42704 21.652 4.14678 21.846C4.14988 21.8469 4.15299 21.8477 4.1561 21.8484C4.15892 21.8491 4.16175 21.8498 4.16458 21.8505C5.07277 22.0599 6.78085 22.2165 8.84838 22.324C10.9306 22.4323 13.4179 22.4924 15.9096 22.4993C18.4013 22.5063 20.9024 22.4601 23.0122 22.3553C25.1065 22.2513 26.8582 22.0878 27.824 21.8486L27.824 21.8487L27.8339 21.846C28.5536 21.652 29.2098 21.2721 29.7367 20.7443C30.2636 20.2166 30.6428 19.5595 30.8364 18.839C30.8383 18.832 30.84 18.825 30.8416 18.818C31.2702 16.8937 31.4949 14.1709 31.4999 11.4758C31.5049 8.78298 31.2907 6.06774 30.8194 4.1638L30.334 4.28396L30.8169 4.15421C30.6233 3.43369 30.2441 2.77666 29.7172 2.24891ZM29.0095 2.95545C29.4115 3.35811 29.7013 3.85927 29.8499 4.40905C30.2919 6.1979 30.5048 8.81756 30.4999 11.474C30.495 14.1254 30.2732 16.7636 29.8679 18.5897C29.7188 19.1373 29.4297 19.6365 29.029 20.0378C28.6271 20.4404 28.1269 20.7304 27.5785 20.8792C26.7184 21.0912 25.0617 21.2523 22.9626 21.3566C20.8748 21.4603 18.3918 21.5063 15.9124 21.4993C13.4332 21.4924 10.9627 21.4326 8.9003 21.3253C6.83087 21.2177 5.21172 21.064 4.3983 20.8781C3.85138 20.729 3.35267 20.4394 2.95167 20.0378C2.5498 19.6352 2.26011 19.1343 2.11146 18.5847C1.69569 16.8838 1.49515 14.1941 1.50009 11.4783C1.50502 8.76634 1.71465 6.09288 2.09302 4.42409C2.24188 3.8759 2.53112 3.37621 2.93206 2.9745C3.33191 2.5739 3.82893 2.28469 4.37406 2.13519C6.75864 1.64066 12.1152 1.46646 17.1454 1.50524C19.6543 1.52458 22.0626 1.59664 23.9489 1.70541C24.8925 1.75982 25.7008 1.82316 26.3237 1.89304C26.9702 1.96556 27.3573 2.03958 27.5038 2.09628C27.5203 2.10265 27.5371 2.10814 27.5541 2.11274C28.1045 2.2611 28.6064 2.55167 29.0095 2.95545ZM13.2451 6.56422C13.0903 6.47714 12.9009 6.47873 12.7476 6.56841C12.5942 6.65808 12.5 6.82238 12.5 7.00001V16C12.5 16.1776 12.5942 16.3419 12.7476 16.4316C12.9009 16.5213 13.0903 16.5229 13.2451 16.4358L21.2451 11.9358C21.4026 11.8472 21.5 11.6806 21.5 11.5C21.5 11.3194 21.4026 11.1528 21.2451 11.0642L13.2451 6.56422ZM13.5 15.1451V7.85493L19.9801 11.5L13.5 15.1451Z" fill="white"/>
</svg>
