<svg width="19" height="19" viewBox="0 0 19 19" fill="none" xmlns="http://www.w3.org/2000/svg">
<path d="M6.16156 4.1622C6.05799 4.26824 6 4.41059 6 4.55883C6 4.70706 6.05799 4.84941 6.16156 4.95545L11.9483 10.8918L6.16156 16.8269C6.05799 16.9329 6 17.0753 6 17.2235C6 17.3717 6.05799 17.5141 6.16156 17.6201C6.21191 17.6718 6.2721 17.7129 6.33859 17.741C6.40508 17.7691 6.47652 17.7835 6.54869 17.7835C6.62086 17.7835 6.69229 17.7691 6.75878 17.741C6.82527 17.7129 6.88547 17.6718 6.93581 17.6201L13.0894 11.3062C13.1975 11.1953 13.258 11.0466 13.258 10.8918C13.258 10.7369 13.1975 10.5882 13.0894 10.4773L6.93581 4.16339C6.88547 4.11168 6.82527 4.07058 6.75878 4.04252C6.69229 4.01446 6.62086 4 6.54869 4C6.47652 4 6.40508 4.01446 6.33859 4.04252C6.2721 4.07058 6.21191 4.11168 6.16156 4.16339V4.1622Z" fill="#F7C356"/>
</svg>
