<svg width="15" height="15" viewBox="0 0 15 15" fill="none" xmlns="http://www.w3.org/2000/svg">
<g clip-path="url(#clip0_2_13)">
<path d="M2.55117 6.52734C2.29219 6.52734 2.0707 6.46406 1.89141 6.33984C0.403124 5.30508 0.659765 1.89609 0.662109 1.86211C0.699609 1.39336 1.0582 1.03945 1.49648 1.03945C1.52344 1.03945 1.55156 1.04062 1.57852 1.04414C2.90273 1.1789 4.62539 1.6957 5.48789 2.74219C5.93086 3.28008 5.77734 3.91758 5.56992 4.35703C5.03555 5.49258 3.59648 6.52734 2.55117 6.52734Z" fill="#F7C356"/>
<path d="M1.49648 1.21641C1.51758 1.21641 1.53984 1.21758 1.56094 1.21992C2.85 1.35117 4.52344 1.84922 5.35312 2.85469C5.56523 3.1125 5.74805 3.56953 5.41172 4.2832C4.91016 5.3461 3.52031 6.35156 2.55117 6.35156C2.32852 6.35156 2.14102 6.29883 1.99102 6.19453C0.823828 5.38477 0.762891 2.80313 0.837891 1.87617C0.867187 1.5 1.15078 1.21641 1.49648 1.21641ZM1.49648 0.864845C0.967969 0.864845 0.532031 1.29375 0.486328 1.84805C0.423047 2.63672 0.404297 5.51953 1.79062 6.48281C2.00859 6.63399 2.26875 6.70195 2.55117 6.70195C4.28789 6.70195 6.86484 4.1332 5.625 2.62969C4.68164 1.48594 2.85937 0.997267 1.59727 0.868361C1.56328 0.866017 1.5293 0.864845 1.49648 0.864845Z" fill="#EB8F00"/>
<path d="M0.680859 2.58281C0.686718 2.4293 0.704296 2.26172 0.808593 2.15273C0.946875 2.00742 1.17539 2.02265 1.36875 2.06367C1.89492 2.175 2.39648 2.41055 2.82422 2.74687C3.0375 2.91445 3.24023 3.12187 3.30352 3.38906C3.39961 3.80039 3.1418 4.20117 2.89687 4.54101C2.72578 4.77773 2.55352 5.0168 2.33555 5.20781C2.15391 5.36836 1.80586 5.7914 1.56328 5.81953C1.31953 5.84883 1.31133 5.66367 1.21172 5.46797C0.951562 4.95469 0.815625 4.09453 0.732421 3.52265C0.686718 3.21211 0.66914 2.89687 0.680859 2.58281Z" fill="#EB8F00"/>
<path d="M12.4488 6.52734C11.4035 6.52734 9.96445 5.49258 9.42891 4.35703C9.22148 3.91758 9.06797 3.28008 9.51094 2.74219C10.3746 1.6957 12.0961 1.1789 13.4203 1.04414C13.4484 1.0418 13.4754 1.03945 13.5023 1.03945C13.9406 1.03945 14.2992 1.39336 14.3367 1.86211C14.3391 1.89609 14.5969 5.30508 13.1086 6.33867C12.9293 6.46406 12.7078 6.52734 12.4488 6.52734Z" fill="#F7C356"/>
<path d="M13.5035 1.21641C13.8492 1.21641 14.1328 1.5 14.1633 1.87735C14.2383 2.80313 14.1762 5.38477 13.009 6.1957C12.859 6.3 12.6715 6.35274 12.4488 6.35274C11.4797 6.35274 10.0898 5.34727 9.58828 4.28438C9.25195 3.5707 9.43477 3.11367 9.64688 2.85586C10.4766 1.85039 12.15 1.35235 13.4391 1.2211C13.4602 1.21641 13.4824 1.21641 13.5035 1.21641ZM13.5035 0.864845C13.4707 0.864845 13.4367 0.866017 13.4039 0.869533C12.1418 0.997267 10.3184 1.48594 9.375 2.62969C8.13516 4.13438 10.7121 6.70313 12.4488 6.70313C12.7313 6.70313 12.9914 6.63516 13.2094 6.48399C14.5957 5.5207 14.577 2.63672 14.5125 1.84922C14.468 1.29258 14.032 0.864845 13.5035 0.864845Z" fill="#EB8F00"/>
<path d="M14.3191 2.58281C14.3133 2.4293 14.2957 2.26172 14.1914 2.15273C14.0531 2.00742 13.8246 2.02265 13.6312 2.06367C13.1051 2.175 12.6035 2.41055 12.1758 2.74687C11.9625 2.91445 11.7598 3.12187 11.6965 3.38906C11.6004 3.80039 11.8582 4.20117 12.1031 4.54101C12.2742 4.77773 12.4465 5.0168 12.6645 5.20781C12.8461 5.36836 13.1941 5.7914 13.4367 5.81953C13.6805 5.84883 13.6887 5.50781 13.7883 5.31211C14.0484 4.79883 14.1844 4.0957 14.2676 3.52265C14.3133 3.21211 14.3309 2.89687 14.3191 2.58281Z" fill="#EB8F00"/>
<path d="M7.49297 13.9594C4.47305 13.9594 1.22344 12.034 1.22344 7.80703C1.22344 3.58008 4.47305 1.65469 7.49297 1.65469C9.16524 1.65469 10.7133 2.21836 11.8535 3.2414C13.1027 4.36289 13.7625 5.94141 13.7625 7.80703C13.7625 9.66328 13.1027 11.2395 11.8535 12.3645C10.7098 13.3934 9.16172 13.9594 7.49297 13.9594Z" fill="url(#paint0_linear_2_13)"/>
<path d="M7.49297 1.83047C9.12188 1.83047 10.6277 2.37773 11.7352 3.37265C12.9457 4.46015 13.5867 5.99414 13.5867 7.80703C13.5867 9.61172 12.9469 11.1422 11.7352 12.2332C10.6254 13.2328 9.11836 13.7836 7.49297 13.7836C4.55859 13.7836 1.39922 11.9133 1.39922 7.80703C1.39922 5.97305 2.03906 4.43203 3.24961 3.35273C4.34883 2.37187 5.85586 1.83164 7.49297 1.83047ZM7.49297 1.4789C4.14609 1.4789 1.04766 3.66562 1.04766 7.80703C1.04766 11.9262 4.14609 14.1352 7.49297 14.1352C10.8387 14.1352 13.9383 11.8699 13.9383 7.80703C13.9383 3.72305 10.8387 1.48008 7.49297 1.4789Z" fill="#EB8F00"/>
<path d="M1.261 12.0004L3.25862 10.9555" stroke="#404040" stroke-width="0.5" stroke-miterlimit="10" stroke-linecap="round" stroke-linejoin="round"/>
<path d="M3.11808 10.2377L1 10.5328" stroke="#404040" stroke-width="0.5" stroke-miterlimit="10" stroke-linecap="round" stroke-linejoin="round"/>
<path d="M1 9L3.13514 9.52601" stroke="#404040" stroke-width="0.5" stroke-miterlimit="10" stroke-linecap="round" stroke-linejoin="round"/>
<path d="M14.0746 12.1161L12 11.0309" stroke="#404040" stroke-width="0.5" stroke-miterlimit="10" stroke-linecap="round" stroke-linejoin="round"/>
<path d="M12.146 10.2854L14.3457 10.592" stroke="#404040" stroke-width="0.5" stroke-miterlimit="10" stroke-linecap="round" stroke-linejoin="round"/>
<path d="M14.3457 9L12.1282 9.54629" stroke="#404040" stroke-width="0.5" stroke-miterlimit="10" stroke-linecap="round" stroke-linejoin="round"/>
<path d="M7.5 8.17969V9.63867" stroke="#404040" stroke-miterlimit="10" stroke-linecap="round" stroke-linejoin="round"/>
<path d="M7.49942 10C8.74737 10 9.63661 10.7777 9.90478 11.2669C10.0081 11.4564 10.029 11.6613 9.95934 11.816C9.9071 11.9331 9.81191 12 9.69814 12C9.65983 12 9.62036 11.9916 9.58089 11.9777C8.95169 11.7408 8.23194 11.6167 7.49594 11.6167C6.76574 11.6167 6.04715 11.7422 5.42027 11.9777C5.37964 11.993 5.34017 12 5.30186 12C5.18809 12 5.0929 11.9331 5.04066 11.816C4.97101 11.6613 4.9919 11.4564 5.09522 11.2669C5.36223 10.7763 6.25147 10 7.49942 10Z" fill="#404040"/>
<path d="M6.56367 1.95586V4.41679" stroke="#EB8F00" stroke-miterlimit="10" stroke-linecap="round" stroke-linejoin="round"/>
<path d="M8.43633 1.95586V4.41679" stroke="#EB8F00" stroke-miterlimit="10" stroke-linecap="round" stroke-linejoin="round"/>
<path d="M7.78945 8.57696L8.42695 7.8586C8.64844 7.60899 8.47148 7.21407 8.1375 7.21407H6.8625C6.52852 7.21407 6.35156 7.60899 6.57305 7.8586L7.21055 8.57696C7.36406 8.75039 7.63594 8.75039 7.78945 8.57696Z" fill="#603813"/>
<path d="M12.3923 9.89278C12.1865 9.89278 11.987 9.81629 11.8584 9.68763C11.694 9.52322 11.5796 9.26518 11.4209 8.90778C11.398 8.85631 11.3744 8.8027 11.3494 8.74695C11.2108 8.43815 11.0942 8.06788 11.0299 7.84772C11.2386 7.91992 11.5875 8.04287 11.9306 8.17439C12.5046 8.39455 12.7168 8.50463 12.8791 8.66689C13.0013 8.78912 13.0778 8.97854 13.0843 9.1744C13.0907 9.38169 13.0221 9.56826 12.8905 9.69978C12.7662 9.82415 12.5889 9.89278 12.3923 9.89278Z" fill="#5F7AFF"/>
<path d="M11.1943 8.01785C11.393 8.0879 11.6446 8.17868 11.8927 8.27375C12.4495 8.48748 12.6539 8.59255 12.8041 8.74195C12.9077 8.84559 12.972 9.00785 12.9778 9.17726C12.9835 9.35453 12.9256 9.51322 12.8155 9.6233C12.7104 9.72838 12.5603 9.78556 12.3923 9.78556C12.2143 9.78556 12.0435 9.72051 11.9341 9.61186C11.784 9.46175 11.6725 9.21086 11.5188 8.86418C11.496 8.81271 11.4724 8.7591 11.4474 8.70335C11.3473 8.48033 11.2594 8.22443 11.1943 8.01785ZM10.8727 7.68047C10.8727 7.68047 11.0335 8.30449 11.2522 8.79127C11.4516 9.23588 11.5789 9.55968 11.7833 9.7634C11.9356 9.91565 12.1636 10 12.393 10C12.6025 10 12.8133 9.92923 12.9677 9.77484C13.2915 9.45103 13.2472 8.88133 12.9563 8.59041C12.7733 8.40742 12.5389 8.29162 11.9706 8.07361C11.4259 7.8656 10.8727 7.68047 10.8727 7.68047Z" fill="#4864ED"/>
<path d="M4.35234 8.16094C4.92448 8.16094 5.38828 7.63628 5.38828 6.98907C5.38828 6.34186 4.92448 5.81719 4.35234 5.81719C3.78021 5.81719 3.31641 6.34186 3.31641 6.98907C3.31641 7.63628 3.78021 8.16094 4.35234 8.16094Z" fill="#404040"/>
<path d="M10.6477 8.14571C11.2198 8.14571 11.6836 7.62104 11.6836 6.97383C11.6836 6.32662 11.2198 5.80196 10.6477 5.80196C10.0755 5.80196 9.61172 6.32662 9.61172 6.97383C9.61172 7.62104 10.0755 8.14571 10.6477 8.14571Z" fill="#404040"/>
</g>
<defs>
<linearGradient id="paint0_linear_2_13" x1="7.49268" y1="2.93332" x2="7.49268" y2="12.6179" gradientUnits="userSpaceOnUse">
<stop offset="0.5094" stop-color="#F7C356"/>
<stop offset="0.6339" stop-color="#FDCE32"/>
<stop offset="0.7405" stop-color="#FCC32E"/>
<stop offset="0.8403" stop-color="#F9B128"/>
<stop offset="0.9" stop-color="#F6A323"/>
</linearGradient>
<clipPath id="clip0_2_13">
<rect width="15" height="15" fill="white"/>
</clipPath>
</defs>
</svg>
